# xmcd CD database file
#
# Track frame offsets:
#	150
#	18060
#	41688
#
# Disc length: 807 seconds
#
# Revision: 0
# Processed by: cddbd v1.5.1PL0 Copyright (c) Steve Scherf et al.
# Submitted via: CDex 1.51
#
DISCID=17032503
DTITLE=Soyuz Project - Preview Release#3
DYEAR=2002
DGENRE=Techno
TTITLE0=Overflow
TTITLE1=J3
TTITLE2=Shanghi Vanceking
EXTD=YEAR: 2002
EXTT0=
EXTT1=
EXTT2=
PLAYORDER=
